<?xml version="1.0" encoding="UTF-8" standalone="no"?>
<svg
   xmlns:dc="http://purl.org/dc/elements/1.1/"
   xmlns:cc="http://creativecommons.org/ns#"
   xmlns:rdf="http://www.w3.org/1999/02/22-rdf-syntax-ns#"
   xmlns:svg="http://www.w3.org/2000/svg"
   xmlns="http://www.w3.org/2000/svg"
   xmlns:sodipodi="http://sodipodi.sourceforge.net/DTD/sodipodi-0.dtd"
   xmlns:inkscape="http://www.inkscape.org/namespaces/inkscape"
   width="640"
   height="640"
   viewBox="0 0 169.33333 169.33334"
   version="1.1"
   id="svg1080"
   inkscape:version="1.0.2 (1.0.2+r75+1)"
   sodipodi:docname="python-ufmg.svg"
   inkscape:export-filename="/home/andre/Documents/pyjobs/ufmg/python-ufmg.png"
   inkscape:export-xdpi="96"
   inkscape:export-ydpi="96">
  <defs
     id="defs1074" />
  <sodipodi:namedview
     id="base"
     pagecolor="#ffffff"
     bordercolor="#666666"
     borderopacity="1.0"
     inkscape:pageopacity="0.0"
     inkscape:pageshadow="2"
     inkscape:zoom="0.35"
     inkscape:cx="400"
     inkscape:cy="560"
     inkscape:document-units="mm"
     inkscape:current-layer="layer1"
     inkscape:document-rotation="0"
     showgrid="false"
     units="px"
     inkscape:window-width="1920"
     inkscape:window-height="1016"
     inkscape:window-x="0"
     inkscape:window-y="27"
     inkscape:window-maximized="1" />
  <metadata
     id="metadata1077">
    <rdf:RDF>
      <cc:Work
         rdf:about="">
        <dc:format>image/svg+xml</dc:format>
        <dc:type
           rdf:resource="http://purl.org/dc/dcmitype/StillImage" />
        <dc:title></dc:title>
      </cc:Work>
    </rdf:RDF>
  </metadata>
  <g
     inkscape:label="Layer 1"
     inkscape:groupmode="layer"
     id="layer1">
    <g
       id="g1072"
       transform="matrix(0.8703467,0,0,0.8703467,35.645259,7.1700322)">
      <g
         id="g964"
         transform="translate(-4.8499995,-5.6470525)">
        <g
           id="g956">
          <path
             style="fill:none;fill-opacity:1;stroke:#ffd43b;stroke-width:1.5;stroke-miterlimit:4;stroke-dasharray:none;stroke-opacity:1"
             d="m 91.228906,35.054223 v 11.90625 c 0,9.230755 -7.825895,16.999999 -16.75,17 h -26.78125 c -7.335833,0 -13.406249,6.278483 -13.40625,13.625 v 25.531247 c 0,7.26634 6.318588,11.54032 13.40625,13.625 8.487331,2.49561 16.626237,2.94663 26.78125,0 6.750155,-1.95439 13.406253,-5.88761 13.40625,-13.625 V 92.897973 h -26.78125 v -3.40625 h 26.78125 13.406254 c 7.79246,0 10.69625,-5.435408 13.40624,-13.59375 2.79933,-8.398886 2.68022,-16.475776 0,-27.25 -1.92578,-7.757441 -5.60387,-13.59375 -13.40624,-13.59375 z m -15.0625,64.65625 c 2.779478,3e-6 5.03125,2.277417 5.03125,5.093747 -2e-6,2.82635 -2.251775,5.125 -5.03125,5.125 -2.76955,0 -5.03125,-2.29865 -5.03125,-5.125 2e-6,-2.81633 2.261697,-5.093747 5.03125,-5.093747 z"
             id="path1950" />
          <path
             style="fill:#ffd43b;fill-opacity:1;stroke:none;stroke-opacity:1"
             d="m 76.166406,99.710473 c 2.779478,1e-5 5.03125,2.277417 5.03125,5.093747 -2e-6,2.82635 -2.251775,5.125 -5.03125,5.125 -2.76955,0 -5.03125,-2.29865 -5.03125,-5.125 2e-6,-2.81633 2.261697,-5.093747 5.03125,-5.093747 z"
             id="path1950-7"
             sodipodi:nodetypes="sssss" />
        </g>
        <g
           id="g952">
          <path
             style="fill:none;fill-opacity:1;stroke:#306998;stroke-width:1.5;stroke-miterlimit:4;stroke-dasharray:none;stroke-opacity:1"
             d="m 60.510156,6.3979729 c -4.583653,0.021298 -8.960939,0.4122177 -12.8125,1.09375 C 36.35144,9.4962267 34.291407,13.691825 34.291406,21.429223 v 10.21875 h 26.8125 v 3.40625 h -26.8125 -10.0625 c -7.792459,0 -14.6157592,4.683717 -16.7500002,13.59375 -2.46182,10.212966 -2.5710151,16.586023 0,27.25 1.9059283,7.937852 6.4575432,13.593748 14.2500002,13.59375 h 9.21875 v -12.25 c 0,-8.849902 7.657144,-16.656248 16.75,-16.65625 h 26.78125 c 7.454951,0 13.406253,-6.138164 13.40625,-13.625 v -25.53125 c 0,-7.266339 -6.12998,-12.7247775 -13.40625,-13.9375001 -4.605987,-0.7667253 -9.385097,-1.1150483 -13.96875,-1.09375 z m -14.5,8.2187501 c 2.769547,0 5.03125,2.298646 5.03125,5.125 -2e-6,2.816336 -2.261703,5.09375 -5.03125,5.09375 -2.779476,-1e-6 -5.03125,-2.277415 -5.03125,-5.09375 -1e-6,-2.826353 2.251774,-5.125 5.03125,-5.125 z"
             id="path1948" />
          <path
             style="fill:#306998;fill-opacity:1;stroke:none;stroke-opacity:1"
             d="m 46.010156,14.616723 c 2.77948,10e-6 5.03125,2.27742 5.03125,5.09375 0,2.82635 -2.25178,5.125 -5.03125,5.125 -2.76955,0 -5.03125,-2.29865 -5.03125,-5.125 0,-2.81633 2.26169,-5.09375 5.03125,-5.09375 z"
             id="path1950-7-5"
             sodipodi:nodetypes="sssss" />
        </g>
      </g>
      <g
         id="g1022">
        <path
           id="path46"
           style="fill:#306998;fill-opacity:1;stroke:none;stroke-width:0.378388;stroke-opacity:1"
           d="m 13.664697,146.65186 c 0,-5.51014 -1.571163,-8.33897 -4.7134899,-8.49387 -1.2502946,-0.059 -2.4710788,0.14015 -3.6586746,0.60117 -0.9478607,0.33931 -1.585913,0.67494 -1.9215389,1.01425 v 13.15204 c 2.0100551,1.26136 3.7951362,1.84778 5.3515463,1.75557 3.2935421,-0.2176 4.9421571,-2.89153 4.9421571,-8.02916 z m 3.876274,0.22867 c 0,2.79932 -0.656495,5.12288 -1.976863,6.97065 -1.471583,2.0912 -3.511145,3.16815 -6.1186852,3.22716 -1.9657989,0.0627 -3.9906074,-0.55323 -6.0744292,-1.84409 v 11.95338 L -4.678562e-7,165.98529 V 139.45254 C 0.55322482,138.77391 1.2650437,138.19118 2.1280775,137.69697 c 2.0063697,-1.16916 4.4442525,-1.77033 7.313656,-1.79983 l 0.047946,0.0479 c 2.6222945,-0.0332 4.6434175,1.04376 6.0633645,3.22715 1.324054,2.00269 1.987927,4.56966 1.987927,7.7083 z" />
        <path
           id="path48"
           style="fill:#306998;fill-opacity:1;stroke:none;stroke-width:0.378388;stroke-opacity:1"
           d="m 38.143128,154.72528 c 0,3.75457 -0.376192,6.35473 -1.128578,7.8005 -0.756079,1.44576 -2.194466,2.60016 -4.318859,3.45951 -1.722378,0.67862 -3.584908,1.04744 -5.583899,1.11014 l -0.556914,-2.12439 c 2.032183,-0.27662 3.463199,-0.55323 4.293037,-0.82984 1.633862,-0.55323 2.75507,-1.40151 3.370994,-2.53747 0.494216,-0.92573 0.737636,-2.69237 0.737636,-5.30729 v -0.87778 c -2.30511,1.04744 -4.720869,1.56747 -7.247268,1.56747 -1.659679,0 -3.123888,-0.52003 -4.385242,-1.56747 -1.416263,-1.13965 -2.124393,-2.58542 -2.124393,-4.3373 v -14.02982 l 3.370994,-1.1544 v 14.12202 c 0,1.50847 0.486841,2.67025 1.460519,3.48534 0.973678,0.81508 2.235037,1.20603 3.780383,1.17652 1.545346,-0.0332 3.201337,-0.63068 4.960596,-1.79983 V 136.4061 h 3.370994 z" />
        <path
           id="path50"
           style="fill:#306998;fill-opacity:1;stroke:none;stroke-width:0.378388;stroke-opacity:1"
           d="m 51.302547,156.89393 c -0.402011,0.0332 -0.770829,0.0479 -1.11014,0.0479 -1.90679,0 -3.393126,-0.45364 -4.455321,-1.36462 -1.058508,-0.91098 -1.589602,-2.16865 -1.589602,-3.773 V 138.5268 h -2.3088 v -2.1207 h 2.3088 v -5.63184 l 3.367305,-1.19866 v 6.8305 h 3.787758 v 2.1207 h -3.787758 v 13.18524 c 0,1.26504 0.339311,2.16127 1.017938,2.68499 0.582732,0.43152 1.508465,0.67863 2.76982,0.74133 z" />
        <path
           id="path52"
           style="fill:#306998;fill-opacity:1;stroke:none;stroke-width:0.378388;stroke-opacity:1"
           d="m 71.712918,156.61732 h -3.370994 v -13.01189 c 0,-1.32406 -0.309809,-2.46371 -0.925729,-3.41526 -0.711819,-1.07694 -1.700254,-1.61542 -2.968984,-1.61542 -1.54535,0 -3.477956,0.81509 -5.797813,2.44526 v 15.59731 h -3.370997 v -31.1024 l 3.370997,-1.0622 v 14.16629 c 2.153896,-1.56747 4.506948,-2.35306 7.062854,-2.35306 1.785081,0 3.230847,0.60117 4.337297,1.79983 1.110144,1.19866 1.663369,2.69237 1.663369,4.47745 z" />
        <path
           id="path54"
           style="fill:#306998;fill-opacity:1;stroke:none;stroke-width:0.378388;stroke-opacity:1"
           d="m 89.630083,146.12076 c 0,-2.11701 -0.402007,-3.86521 -1.202346,-5.24827 -0.951546,-1.6855 -2.430504,-2.57435 -4.429499,-2.66656 -3.695552,0.21392 -5.539639,2.86203 -5.539639,7.93696 0,2.32724 0.383568,4.27091 1.158082,5.83101 0.988435,1.98793 2.471082,2.96898 4.447945,2.93579 3.710306,-0.0295 5.565457,-2.95792 5.565457,-8.78893 z m 3.69187,0.0221 c 0,3.01324 -0.770828,5.5212 -2.3088,7.52388 -1.692871,2.24242 -4.031178,3.36731 -7.014915,3.36731 -2.957916,0 -5.263026,-1.12489 -6.926395,-3.36731 -1.508465,-2.00268 -2.260854,-4.51064 -2.260854,-7.52388 0,-2.83252 0.815088,-5.21508 2.445261,-7.15506 1.722382,-2.05801 3.986922,-3.09069 6.786244,-3.09069 2.79933,0 5.07862,1.03268 6.834198,3.09069 1.630169,1.93998 2.445261,4.32254 2.445261,7.15506 z" />
        <path
           id="path56"
           style="fill:#306998;fill-opacity:1;stroke:none;stroke-width:0.378388;stroke-opacity:1"
           d="m 112.648,156.61732 h -3.371 v -13.74953 c 0,-1.50846 -0.45364,-2.68499 -1.36093,-3.53328 -0.90729,-0.84459 -2.11701,-1.25398 -3.62548,-1.22078 -1.60067,0.0295 -3.12389,0.55323 -4.56965,1.56747 v 16.93612 h -3.370994 v -17.35288 c 1.939982,-1.41257 3.725064,-2.33462 5.355224,-2.76613 1.53798,-0.40201 2.89523,-0.60117 4.06438,-0.60117 0.80034,0 1.55272,0.0774 2.26085,0.23235 1.32406,0.30612 2.401,0.8741 3.23085,1.70763 0.92572,0.92204 1.38675,2.0285 1.38675,3.32304 z" />
      </g>
      <g
         id="g4937"
         transform="matrix(0.25703087,0,0,-0.25703087,-78.475785,238.66542)">
        <path
           d="m 598.578,260.798 v 14.192 c 0,1.314 -1.072,1.7 -2.203,1.815 v 1.243 h 8.645 v -1.24 c -1.085,-0.1 -2.005,-0.459 -2.005,-1.712 v -14.034 c 0,-4.751 2.946,-6.662 6.92,-6.662 7.222,0 7.222,5.626 7.222,10.789 v 6.087 c 0,4.393 -0.372,5.352 -2.619,5.537 v 1.235 h 7.27 v -1.228 c -1.332,-0.133 -2.272,-0.772 -2.272,-3.579 v -10.479 c 0,-5.933 -2.842,-10.475 -10.374,-10.475 -6.608,0 -10.584,2.527 -10.584,8.511"
           style="fill:#231f20;fill-opacity:1;fill-rule:evenodd;stroke:none;stroke-width:0.1"
           id="path270" />
        <path
           d="m 636.196,255.871 v 18.71 c 0,1.563 -0.884,2.076 -2.472,2.224 v 1.366 c 2.89,-0.043 5.758,-0.084 8.662,-0.084 4.857,0 7.902,0.056 10.896,0.112 l 0.146,-4.085 h -1.377 c -0.738,2.111 -2.101,2.431 -5.893,2.431 h -5.522 v -9.758 h 4.848 c 2.096,0 3.244,0.034 3.597,1.735 h 1.041 v -4.975 h -1.084 c -0.346,1.403 -1.304,1.586 -3.554,1.586 h -4.848 v -8.236 c 0,-2.573 1.004,-3.23 3.15,-3.292 l 0.021,-1.218 h -10.083 v 1.26 c 1.588,0.145 2.472,0.658 2.472,2.224"
           style="fill:#231f20;fill-opacity:1;fill-rule:evenodd;stroke:none;stroke-width:0.1"
           id="path272" />
        <path
           d="m 741.771,259.97 v -1.66 l -0.017,-4.891 c -2.563,-0.692 -5.98,-1.499 -9.687,-1.499 -8.306,0 -14.143,5.835 -14.143,13.055 0,8.261 6.405,13.474 14.5,13.474 1.352,0 2.43,-0.156 4.861,-0.462 0.669,-0.108 4.023,-0.725 4.742,-0.878 l 0.327,-4.757 h -1.695 c -1.177,2.348 -2.805,4.446 -7.297,4.446 -5.629,0 -10.383,-3.407 -10.383,-11.662 0,-4.804 2.688,-11.567 10.893,-11.567 1.291,0 2.482,0.311 3.664,0.827 0,0.463 0.106,3.303 0.106,3.976 0,2.282 -0.256,3.242 -2.121,3.548 v 1.279 h 8.062 v -1.198 c -1.439,-0.133 -1.812,-0.605 -1.812,-2.031"
           style="fill:#231f20;fill-opacity:1;fill-rule:evenodd;stroke:none;stroke-width:0.1"
           id="path274" />
        <path
           d="m 706.8,259.975 c -0.842,-0.894 -3.862,-3.516 -4.865,-3.516 -0.393,0 -0.901,0.217 -0.901,0.667 0,0.617 0.508,1.733 0.785,2.627 l 4.469,13.08 c 0.284,0.788 0.565,1.846 0.565,2.738 0,1.231 -0.504,2.288 -2.235,2.288 -5.312,0 -13.697,-9.386 -16.717,-13.189 h -0.109 l 2.68,8.332 c 0.338,1.004 0.613,2.124 0.613,3.014 0,1.067 -0.782,1.843 -2.512,1.843 -4.974,0 -13.25,-9.216 -15.927,-13.076 h -0.115 l 2.906,8.441 c 0.22,0.678 0.616,1.731 0.616,2.687 0,1.056 -0.558,1.948 -1.9,1.948 -3.693,0 -7.607,-4.468 -9.728,-7.091 0,0 -0.545,-0.665 -0.113,-1.035 0.495,-0.423 0.958,0.024 0.958,0.024 l 1.506,1.68 c 1.004,1.003 2.071,1.954 3.239,1.954 0.673,0 0.896,-0.501 0.896,-1.119 0,-0.5 -0.165,-1.058 -0.223,-1.392 l -5.818,-17.585 c -0.127,-0.634 1.061,-0.98 1.623,-0.98 1.416,0 2.067,0.42 2.233,0.872 l 1.008,2.933 c 1.511,4.251 3.912,8.104 6.993,11.406 1.787,1.953 5.141,5.865 8.157,5.865 0.783,0 1.062,-0.618 1.062,-1.392 0,-1.456 -0.779,-3.581 -0.951,-4.139 l -4.889,-14.583 c -0.103,-0.461 0.386,-1.099 1.906,-1.106 1.395,-0.001 1.786,0.49 1.952,0.997 l 0.92,2.285 c 1.561,4.022 3.132,6.927 5.754,10.166 1.792,2.185 6.877,7.826 9.787,7.826 0.609,0 1.285,-0.443 1.285,-1.335 0,-0.56 -0.336,-1.509 -0.613,-2.297 l -4.525,-12.97 c -0.401,-1.117 -0.681,-2.007 -0.681,-2.629 0,-1.444 1.012,-1.893 2.074,-1.893 3.069,0 5.7,2.515 7.885,4.916 l 1.73,1.903 c 0,0 0.482,0.507 0.004,0.907 -0.409,0.334 -0.784,-0.072 -0.784,-0.072"
           style="fill:#cf181f;fill-opacity:1;fill-rule:evenodd;stroke:none;stroke-width:0.1"
           id="path276" />
        <path
           d="m 665.21,245.023 h 38.653 v -9.319 H 665.21 v 9.319"
           style="fill:#cf181f;fill-opacity:1;fill-rule:nonzero;stroke:none;stroke-width:0.1"
           id="path278" />
      </g>
    </g>
  </g>
</svg>
