<?xml version="1.0" encoding="UTF-8" standalone="no"?>
<svg
   xmlns:dc="http://purl.org/dc/elements/1.1/"
   xmlns:cc="http://creativecommons.org/ns#"
   xmlns:rdf="http://www.w3.org/1999/02/22-rdf-syntax-ns#"
   xmlns:svg="http://www.w3.org/2000/svg"
   xmlns="http://www.w3.org/2000/svg"
   xmlns:sodipodi="http://sodipodi.sourceforge.net/DTD/sodipodi-0.dtd"
   xmlns:inkscape="http://www.inkscape.org/namespaces/inkscape"
   width="51.931709mm"
   height="15.07949mm"
   viewBox="0 0 51.931709 15.07949"
   version="1.1"
   id="svg4176"
   inkscape:version="1.0.2 (1.0.2+r75+1)"
   sodipodi:docname="ufmg.svg"
   inkscape:export-filename="/home/andre/python/python-ufmg/Midias/UFMG/ufmg.png"
   inkscape:export-xdpi="96"
   inkscape:export-ydpi="96">
  <defs
     id="defs4170" />
  <sodipodi:namedview
     id="base"
     pagecolor="#ffffff"
     bordercolor="#666666"
     borderopacity="1.0"
     inkscape:pageopacity="0.0"
     inkscape:pageshadow="2"
     inkscape:zoom="1.4"
     inkscape:cx="80.805437"
     inkscape:cy="-50.19728"
     inkscape:document-units="mm"
     inkscape:current-layer="layer1"
     inkscape:document-rotation="0"
     showgrid="false"
     fit-margin-top="0"
     fit-margin-left="0"
     fit-margin-right="0"
     fit-margin-bottom="0"
     inkscape:window-width="1920"
     inkscape:window-height="1016"
     inkscape:window-x="0"
     inkscape:window-y="27"
     inkscape:window-maximized="1" />
  <metadata
     id="metadata4173">
    <rdf:RDF>
      <cc:Work
         rdf:about="">
        <dc:format>image/svg+xml</dc:format>
        <dc:type
           rdf:resource="http://purl.org/dc/dcmitype/StillImage" />
        <dc:title />
      </cc:Work>
    </rdf:RDF>
  </metadata>
  <g
     inkscape:label="Layer 1"
     inkscape:groupmode="layer"
     id="layer1"
     transform="translate(-295.31391,-287.28168)">
    <path
       d="m 296.09108,293.50856 v -5.00662 c 0,-0.46355 -0.37818,-0.59972 -0.77717,-0.64029 v -0.4385 h 3.04976 v 0.43744 c -0.38276,0.0353 -0.70732,0.16193 -0.70732,0.60396 v 4.95088 c 0,1.67605 1.03928,2.35021 2.44122,2.35021 2.54776,0 2.54776,-1.98473 2.54776,-3.80612 v -2.14736 c 0,-1.54976 -0.13123,-1.88807 -0.92392,-1.95333 v -0.43568 h 2.56469 v 0.43321 c -0.4699,0.0469 -0.80151,0.27234 -0.80151,1.26259 v 3.69676 c 0,2.09303 -1.00259,3.69534 -3.65971,3.69534 -2.33116,0 -3.7338,-0.89146 -3.7338,-3.00249"
       style="fill:#231f20;fill-opacity:1;fill-rule:evenodd;stroke:none;stroke-width:0.0352778"
       id="path316" />
    <path
       d="m 309.36187,295.2467 v -6.60047 c 0,-0.55139 -0.31186,-0.73237 -0.87207,-0.78458 v -0.4819 c 1.01953,0.0152 2.0313,0.0296 3.05576,0.0296 1.71345,0 2.78765,-0.0198 3.84387,-0.0395 l 0.0515,1.44109 h -0.48578 c -0.26035,-0.74471 -0.74118,-0.8576 -2.07892,-0.8576 h -1.94804 v 3.44241 h 1.71027 c 0.73942,0 1.14441,-0.012 1.26894,-0.61207 h 0.36724 v 1.75507 h -0.38241 c -0.12206,-0.49495 -0.46002,-0.55951 -1.25377,-0.55951 h -1.71027 v 2.90548 c 0,0.9077 0.35419,1.13947 1.11125,1.16134 l 0.007,0.42969 h -3.55706 v -0.4445 c 0.56021,-0.0512 0.87207,-0.23213 0.87207,-0.78458"
       style="fill:#231f20;fill-opacity:1;fill-rule:evenodd;stroke:none;stroke-width:0.0352778"
       id="path318" />
    <path
       d="m 346.60638,293.80066 v 0.58561 l -0.006,1.72544 c -0.90417,0.24412 -2.10962,0.52881 -3.41736,0.52881 -2.93017,0 -4.98934,-2.05845 -4.98934,-4.60551 0,-2.9143 2.25954,-4.75333 5.11528,-4.75333 0.47695,0 0.85725,0.055 1.71485,0.16299 0.23601,0.0381 1.41923,0.25576 1.67287,0.30973 l 0.11536,1.67817 h -0.59796 c -0.41522,-0.82832 -0.98954,-1.56845 -2.57422,-1.56845 -1.98578,0 -3.66289,1.20191 -3.66289,4.11409 0,1.69475 0.94827,4.08058 3.84281,4.08058 0.45544,0 0.8756,-0.10971 1.29258,-0.29174 0,-0.16334 0.0374,-1.16523 0.0374,-1.40265 0,-0.80504 -0.0903,-1.1437 -0.74824,-1.25165 v -0.45121 h 2.8441 v 0.42263 c -0.50765,0.0469 -0.63924,0.21343 -0.63924,0.71649"
       style="fill:#231f20;fill-opacity:1;fill-rule:evenodd;stroke:none;stroke-width:0.0352778"
       id="path320" />
    <path
       d="m 334.26939,293.7989 c -0.29704,0.31538 -1.36243,1.24037 -1.71626,1.24037 -0.13864,0 -0.31785,-0.0766 -0.31785,-0.23531 0,-0.21766 0.17921,-0.61136 0.27693,-0.92674 l 1.57656,-4.61434 c 0.10019,-0.27799 0.19932,-0.65123 0.19932,-0.9659 0,-0.43427 -0.1778,-0.80716 -0.78846,-0.80716 -1.87395,0 -4.832,3.31117 -5.89739,4.65279 h -0.0385 l 0.94545,-2.93935 c 0.11924,-0.35419 0.21625,-0.7493 0.21625,-1.06327 0,-0.37641 -0.27587,-0.65017 -0.88618,-0.65017 -1.75472,0 -4.6743,3.2512 -5.61869,4.61292 h -0.0406 l 1.02517,-2.97779 c 0.0776,-0.23919 0.21731,-0.61066 0.21731,-0.94792 0,-0.37253 -0.19685,-0.68721 -0.67027,-0.68721 -1.30281,0 -2.68358,1.57621 -3.43183,2.50155 0,0 -0.19226,0.2346 -0.0399,0.36512 0.17462,0.14923 0.33796,-0.008 0.33796,-0.008 l 0.53128,-0.59267 c 0.35419,-0.35384 0.73061,-0.68933 1.14265,-0.68933 0.23742,0 0.31609,0.17674 0.31609,0.39476 0,0.17639 -0.0582,0.37324 -0.0787,0.49107 l -2.05246,6.20359 c -0.0448,0.22367 0.3743,0.34573 0.57256,0.34573 0.49953,0 0.72919,-0.14817 0.78775,-0.30763 l 0.3556,-1.03469 c 0.53305,-1.49966 1.38007,-2.85891 2.46698,-4.02379 0.63041,-0.68897 1.81363,-2.06904 2.8776,-2.06904 0.27623,0 0.37465,0.21802 0.37465,0.49107 0,0.51364 -0.27481,1.2633 -0.33549,1.46015 l -1.72473,5.14455 c -0.0363,0.16264 0.13617,0.38771 0.6724,0.39018 0.49212,3.5e-4 0.63006,-0.17286 0.68862,-0.35172 l 0.32455,-0.8061 c 0.55069,-1.41887 1.1049,-2.44369 2.02989,-3.58634 0.63218,-0.77082 2.42605,-2.76084 3.45263,-2.76084 0.21485,0 0.45332,0.15628 0.45332,0.47096 0,0.19756 -0.11853,0.53234 -0.21625,0.81033 l -1.59632,4.57553 c -0.14146,0.39405 -0.24024,0.70802 -0.24024,0.92745 0,0.50941 0.35701,0.66781 0.73166,0.66781 1.08268,0 2.01083,-0.88724 2.78165,-1.73426 l 0.61031,-0.67133 c 0,0 0.17004,-0.17886 10e-4,-0.31997 -0.14429,-0.11783 -0.27658,0.0254 -0.27658,0.0254"
       style="fill:#cf181f;fill-opacity:1;fill-rule:evenodd;stroke:none;stroke-width:0.0352778"
       id="path322" />
    <path
       d="m 319.59736,299.07363 h 13.63592 v 3.28754 h -13.63592 v -3.28754"
       style="fill:#cf181f;fill-opacity:1;fill-rule:nonzero;stroke:none;stroke-width:0.0352778"
       id="path324" />
  </g>
</svg>
